<svg style="display:none">
	<symbol id="Logo" viewBox="0 0 126 16" fill="none" xmlns="http://www.w3.org/2000/svg"><path d="M0.459999 0.999999H10.02V2.98H2.84V6.92H8.22V8.9H2.84V15H0.459999V0.999999Z" fill="#161616"/><path d="M23.6177 2.98H22.8977L18.6977 15H16.2577L21.2177 0.999999H25.2577L30.2377 15H27.7977L23.6177 2.98ZM18.9777 9.62H27.1377V11.58H18.9777V9.62Z" fill="#161616"/><path d="M40.435 11.16C40.515 11.5333 40.6683 11.8733 40.895 12.18C41.135 12.4733 41.4483 12.7067 41.835 12.88C42.235 13.0533 42.7083 13.14 43.255 13.14C44.095 13.14 44.7217 12.9467 45.135 12.56C45.5483 12.16 45.755 11.6933 45.755 11.16C45.755 10.72 45.6217 10.3533 45.355 10.06C45.1017 9.76667 44.7417 9.52 44.275 9.32C43.8083 9.10667 43.275 8.90667 42.675 8.72C42.1283 8.56 41.6017 8.39333 41.095 8.22C40.5883 8.03333 40.1283 7.80667 39.715 7.54C39.315 7.26 38.995 6.90667 38.755 6.48C38.515 6.04 38.4017 5.49333 38.415 4.84C38.415 3.98667 38.615 3.26667 39.015 2.68C39.415 2.08 39.975 1.62667 40.695 1.32C41.415 1.01333 42.2417 0.86 43.175 0.86C43.9617 0.86 44.6683 0.973333 45.295 1.2C45.935 1.41333 46.475 1.73333 46.915 2.16C47.355 2.57333 47.6817 3.08667 47.895 3.7L45.715 4.42C45.635 4.12667 45.475 3.86667 45.235 3.64C44.995 3.4 44.695 3.21333 44.335 3.08C43.9883 2.94667 43.6083 2.87333 43.195 2.86C42.7417 2.84667 42.335 2.91333 41.975 3.06C41.6283 3.20667 41.3483 3.42 41.135 3.7C40.9217 3.96667 40.815 4.28 40.815 4.64C40.815 5.05333 40.935 5.38 41.175 5.62C41.415 5.84667 41.7283 6.04 42.115 6.2C42.515 6.34667 42.955 6.5 43.435 6.66C43.995 6.82 44.5483 7.00667 45.095 7.22C45.655 7.42 46.1617 7.68 46.615 8C47.0817 8.30667 47.455 8.7 47.735 9.18C48.015 9.66 48.155 10.26 48.155 10.98C48.155 11.7533 47.975 12.4533 47.615 13.08C47.2683 13.7067 46.735 14.2067 46.015 14.58C45.295 14.9533 44.4017 15.14 43.335 15.14C42.4683 15.14 41.675 15.0133 40.955 14.76C40.2483 14.4933 39.655 14.12 39.175 13.64C38.7083 13.1467 38.4017 12.5667 38.255 11.9L40.435 11.16Z" fill="#161616"/><path d="M57.4952 0.999999H59.8752V6.92H66.4752V0.999999H68.8352V15H66.4752V8.9H59.8752V15H57.4952V0.999999Z" fill="#161616"/><path d="M78.7725 0.999999H81.1525V15H78.7725V0.999999Z" fill="#161616"/><path d="M97.485 15.14C96.4983 15.14 95.5717 14.9667 94.705 14.62C93.8383 14.2733 93.0783 13.7867 92.425 13.16C91.785 12.52 91.2783 11.7667 90.905 10.9C90.545 10.02 90.365 9.05333 90.365 8C90.365 6.96 90.545 6.00667 90.905 5.14C91.2783 4.26 91.785 3.5 92.425 2.86C93.0783 2.22 93.8383 1.72667 94.705 1.38C95.5717 1.03333 96.4983 0.86 97.485 0.86C98.4717 0.86 99.3917 1.03333 100.245 1.38C101.112 1.72667 101.865 2.22 102.505 2.86C103.158 3.5 103.665 4.26 104.025 5.14C104.398 6.00667 104.585 6.96 104.585 8C104.585 9.05333 104.398 10.02 104.025 10.9C103.665 11.7667 103.158 12.52 102.505 13.16C101.865 13.7867 101.112 14.2733 100.245 14.62C99.3917 14.9667 98.4717 15.14 97.485 15.14ZM97.485 13.12C98.3917 13.12 99.1983 12.9133 99.905 12.5C100.612 12.0733 101.165 11.48 101.565 10.72C101.965 9.94667 102.165 9.04 102.165 8C102.165 6.94667 101.965 6.04 101.565 5.28C101.165 4.52 100.612 3.93333 99.905 3.52C99.1983 3.09333 98.3917 2.88 97.485 2.88C96.5783 2.88 95.7717 3.09333 95.065 3.52C94.3583 3.93333 93.7983 4.52 93.385 5.28C92.985 6.04 92.785 6.94667 92.785 8C92.785 9.04 92.985 9.94667 93.385 10.72C93.7983 11.48 94.3583 12.0733 95.065 12.5C95.7717 12.9133 96.5783 13.12 97.485 13.12Z" fill="#161616"/><path d="M125.089 0.999999V15H122.669L116.149 4.74V15H113.769V0.999999H116.209L122.729 11.22V0.999999H125.089Z" fill="#161616"/></symbol>
	<symbol id="ChevronLeft" xmlns="http://www.w3.org/2000/svg" fill="none" viewBox="0 0 24 24" stroke="currentColor"><path stroke-linecap="round" stroke-linejoin="round" d="M15.75 19.5L8.25 12l7.5-7.5" /></symbol>
	<symbol id="ChevronRight" xmlns="http://www.w3.org/2000/svg" fill="none" viewBox="0 0 24 24" stroke="currentColor"><path stroke-linecap="round" stroke-linejoin="round" d="M8.25 4.5l7.5 7.5-7.5 7.5" /></symbol>
	<symbol id="ChevronUp" xmlns="http://www.w3.org/2000/svg" fill="none" viewBox="0 0 24 24" stroke="currentColor"><path stroke-linecap="round" stroke-linejoin="round" d="M4.5 15.75l7.5-7.5 7.5 7.5" /></symbol>	
	<symbol id="ChevronDown" xmlns="http://www.w3.org/2000/svg" fill="none" viewBox="0 0 24 24" stroke="currentColor"><path stroke-linecap="round" stroke-linejoin="round" d="M19.5 8.25l-7.5 7.5-7.5-7.5" /></symbol>
	<symbol id="QuestionMarkCircle" xmlns="http://www.w3.org/2000/svg" fill="none" viewBox="0 0 24 24" stroke="currentColor"><path stroke-linecap="round" stroke-linejoin="round" d="M9.879 7.519c1.171-1.025 3.071-1.025 4.242 0 1.172 1.025 1.172 2.687 0 3.712-.203.179-.43.326-.67.442-.745.361-1.45.999-1.45 1.827v.75M21 12a9 9 0 11-18 0 9 9 0 0118 0zm-9 5.25h.008v.008H12v-.008z" /></symbol>
	<symbol id="User" width="20" height="20" viewBox="0 0 20 20" fill="none" xmlns="http://www.w3.org/2000/svg"><path fill-rule="evenodd" clip-rule="evenodd" d="M10.0003 3.33366C8.61961 3.33366 7.50033 4.45295 7.50033 5.83366C7.50033 7.21437 8.61961 8.33366 10.0003 8.33366C11.381 8.33366 12.5003 7.21437 12.5003 5.83366C12.5003 4.45295 11.381 3.33366 10.0003 3.33366ZM5.83366 5.83366C5.83366 3.53247 7.69914 1.66699 10.0003 1.66699C12.3015 1.66699 14.167 3.53247 14.167 5.83366C14.167 8.13484 12.3015 10.0003 10.0003 10.0003C7.69914 10.0003 5.83366 8.13484 5.83366 5.83366ZM8.33366 13.3337C7.67062 13.3337 7.03473 13.597 6.56589 14.0659C6.09705 14.5347 5.83366 15.1706 5.83366 15.8337V17.5003C5.83366 17.9606 5.46056 18.3337 5.00033 18.3337C4.54009 18.3337 4.16699 17.9606 4.16699 17.5003V15.8337C4.16699 14.7286 4.60598 13.6688 5.38738 12.8874C6.16878 12.106 7.22859 11.667 8.33366 11.667H11.667C12.7721 11.667 13.8319 12.106 14.6133 12.8874C15.3947 13.6688 15.8337 14.7286 15.8337 15.8337V17.5003C15.8337 17.9606 15.4606 18.3337 15.0003 18.3337C14.5401 18.3337 14.167 17.9606 14.167 17.5003V15.8337C14.167 15.1706 13.9036 14.5347 13.4348 14.0659C12.9659 13.597 12.33 13.3337 11.667 13.3337H8.33366Z" fill="currentColor"/></symbol>
	<symbol id="ShoppingCart" width="20" height="20" viewBox="0 0 20 20" fill="none" xmlns="http://www.w3.org/2000/svg"><path d="M14.9997 5.00033H13.333C13.333 3.15866 11.8413 1.66699 9.99968 1.66699C8.15801 1.66699 6.66634 3.15866 6.66634 5.00033H4.99967C4.08301 5.00033 3.33301 5.75033 3.33301 6.66699V16.667C3.33301 17.5837 4.08301 18.3337 4.99967 18.3337H14.9997C15.9163 18.3337 16.6663 17.5837 16.6663 16.667V6.66699C16.6663 5.75033 15.9163 5.00033 14.9997 5.00033ZM9.99968 3.33366C10.9163 3.33366 11.6663 4.08366 11.6663 5.00033H8.33301C8.33301 4.08366 9.08301 3.33366 9.99968 3.33366ZM14.9997 16.667H4.99967V6.66699H6.66634V8.33366C6.66634 8.79199 7.04134 9.16699 7.49967 9.16699C7.95801 9.16699 8.33301 8.79199 8.33301 8.33366V6.66699H11.6663V8.33366C11.6663 8.79199 12.0413 9.16699 12.4997 9.16699C12.958 9.16699 13.333 8.79199 13.333 8.33366V6.66699H14.9997V16.667Z" fill="currentColor"/></symbol>
	<symbol id="Bars3" xmlns="http://www.w3.org/2000/svg" viewBox="0 0 20 20" stroke="currentColor" fill="none"><path fill-rule="evenodd" clip-rule="evenodd" d="M2.5 5.00033C2.5 4.54009 2.8731 4.16699 3.33333 4.16699H16.6667C17.1269 4.16699 17.5 4.54009 17.5 5.00033C17.5 5.46056 17.1269 5.83366 16.6667 5.83366H3.33333C2.8731 5.83366 2.5 5.46056 2.5 5.00033ZM2.5 10.0003C2.5 9.54009 2.8731 9.16699 3.33333 9.16699H16.6667C17.1269 9.16699 17.5 9.54009 17.5 10.0003C17.5 10.4606 17.1269 10.8337 16.6667 10.8337H3.33333C2.8731 10.8337 2.5 10.4606 2.5 10.0003ZM2.5 15.0003C2.5 14.5401 2.8731 14.167 3.33333 14.167H16.6667C17.1269 14.167 17.5 14.5401 17.5 15.0003C17.5 15.4606 17.1269 15.8337 16.6667 15.8337H3.33333C2.8731 15.8337 2.5 15.4606 2.5 15.0003Z" fill="currentColor"/></symbol>
	<symbol id="newHeart" xmlns="http://www.w3.org/2000/svg" viewBox="0 0 25 24" fill="none"><path id="Vector" d="M22.7333 9.5625C22.7333 16.125 13.003 21.4369 12.5886 21.6562C12.4794 21.715 12.3573 21.7458 12.2333 21.7458C12.1093 21.7458 11.9872 21.715 11.878 21.6562C11.4636 21.4369 1.73328 16.125 1.73328 9.5625C1.73501 8.02146 2.34796 6.54404 3.43764 5.45436C4.52732 4.36468 6.00474 3.75174 7.54578 3.75C9.48171 3.75 11.1767 4.5825 12.2333 5.98969C13.2898 4.5825 14.9848 3.75 16.9208 3.75C18.4618 3.75174 19.9392 4.36468 21.0289 5.45436C22.1186 6.54404 22.7315 8.02146 22.7333 9.5625Z" fill="#00754A"/></symbol>
	<symbol id="XMark" xmlns="http://www.w3.org/2000/svg" fill="none" viewBox="0 0 24 24" stroke="currentColor"><path stroke-linecap="round" stroke-linejoin="round" d="M6 18L18 6M6 6l12 12" /></symbol>
	<symbol id="Plus" xmlns="http://www.w3.org/2000/svg" fill="none" viewBox="0 0 24 24" stroke="currentColor"><path stroke-linecap="round" stroke-linejoin="round" d="M12 4.5v15m7.5-7.5h-15" /></symbol>
	<symbol id="Minus" xmlns="http://www.w3.org/2000/svg" fill="none" viewBox="0 0 24 24" stroke="currentColor"><path stroke-linecap="round" stroke-linejoin="round" d="M19.5 12h-15" /></symbol>
	<symbol id="MapPin" xmlns="http://www.w3.org/2000/svg" fill="none" viewBox="0 0 24 24" stroke="currentColor"><path stroke-linecap="round" stroke-linejoin="round" d="M15 10.5a3 3 0 11-6 0 3 3 0 016 0z" /><path stroke-linecap="round" stroke-linejoin="round" d="M19.5 10.5c0 7.142-7.5 11.25-7.5 11.25S4.5 17.642 4.5 10.5a7.5 7.5 0 1115 0z" /></symbol>	
	<symbol id="Phone" xmlns="http://www.w3.org/2000/svg" fill="none" viewBox="0 0 24 24" stroke="currentColor"><path stroke-linecap="round" stroke-linejoin="round" d="M2.25 6.75c0 8.284 6.716 15 15 15h2.25a2.25 2.25 0 002.25-2.25v-1.372c0-.516-.351-.966-.852-1.091l-4.423-1.106c-.44-.11-.902.055-1.173.417l-.97 1.293c-.282.376-.769.542-1.21.38a12.035 12.035 0 01-7.143-7.143c-.162-.441.004-.928.38-1.21l1.293-.97c.363-.271.527-.734.417-1.173L6.963 3.102a1.125 1.125 0 00-1.091-.852H4.5A2.25 2.25 0 002.25 4.5v2.25z" /></symbol>
	<symbol id="Elo" xmlns="http://www.w3.org/2000/svg" viewBox="0 0 40 14" stroke="currentColor" fill="none"><path d="M6.57655 3.09309C6.98496 2.95495 7.4234 2.88288 7.87985 2.88288C9.87385 2.88288 11.5375 4.3003 11.9159 6.18018L14.7387 5.6036C14.0901 2.40841 11.2672 0 7.87985 0C7.10508 0 6.36033 0.126126 5.66364 0.36036L6.57655 3.09309Z" fill="currentColor"/><path d="M3.24323 12.2463L5.15314 10.0841C4.30029 9.32733 3.76576 8.22823 3.76576 6.997C3.76576 5.77178 4.30029 4.66667 5.15314 3.91592L3.24323 1.75977C1.79579 3.04505 0.882874 4.91292 0.882874 7.00301C0.882874 9.08709 1.79579 10.961 3.24323 12.2463Z" fill="currentColor"/><path d="M11.9159 7.82617C11.5315 9.70605 9.87387 11.1175 7.87988 11.1175C7.42342 11.1175 6.98498 11.0454 6.57057 10.9073L5.65765 13.64C6.35435 13.8742 7.1051 14.0003 7.87988 14.0003C11.2673 14.0003 14.0901 11.5979 14.7387 8.40275L11.9159 7.82617Z" fill="currentColor"/><path d="M24.1441 9.75962C23.6757 10.2161 23.045 10.4924 22.3484 10.4803C21.8679 10.4743 21.4234 10.3302 21.0511 10.0899L20.1141 11.5794C20.7568 11.9818 21.5075 12.2221 22.3243 12.2341C23.5075 12.2521 24.5886 11.7836 25.3754 11.0209L24.1441 9.75962ZM22.4505 3.68755C20.0961 3.65151 18.1502 5.5374 18.1141 7.89175C18.1021 8.77463 18.3544 9.60346 18.8048 10.2881L26.5405 6.97884C26.1081 5.12298 24.4505 3.72358 22.4505 3.68755ZM19.8859 8.22809C19.8739 8.13199 19.8679 8.02989 19.8679 7.92779C19.8919 6.5404 21.033 5.42929 22.4204 5.45331C23.1772 5.46532 23.8499 5.80767 24.3003 6.34821L19.8859 8.22809ZM28.973 1.76562V10.0119L30.4024 10.6065L29.7237 12.2341L28.3063 11.6455C27.988 11.5074 27.7718 11.2972 27.6096 11.0569C27.4535 10.8167 27.3333 10.4803 27.3333 10.0359V1.76562H28.973Z" fill="currentColor"/><path d="M34.1321 5.57925C34.3844 5.49516 34.6487 5.45312 34.9309 5.45312C36.1502 5.45312 37.1592 6.31798 37.3934 7.46513L39.1171 7.11078C38.7207 5.15882 36.997 3.69336 34.9309 3.69336C34.4565 3.69336 34 3.77144 33.5796 3.90958L34.1321 5.57925ZM32.0961 11.1588L33.2613 9.84351C32.7387 9.38105 32.4144 8.70837 32.4144 7.95762C32.4144 7.20687 32.7448 6.5342 33.2613 6.07774L32.0961 4.76243C31.2132 5.54321 30.6547 6.69036 30.6547 7.96363C30.6547 9.2369 31.2132 10.378 32.0961 11.1588ZM37.3934 8.46813C37.1592 9.61528 36.1442 10.4801 34.9309 10.4801C34.6547 10.4801 34.3844 10.4321 34.1321 10.348L33.5736 12.0177C34 12.1618 34.4565 12.2399 34.9309 12.2399C36.997 12.2399 38.7207 10.7744 39.1171 8.82249L37.3934 8.46813Z" fill="currentColor"/></symbol>
	<symbol id="Mastercard" xmlns="http://www.w3.org/2000/svg" viewBox="0 0 26 20" fill="none" stroke="currentColor"><g clip-path="url(#clip0_81_156)"><path d="M4.77191 19.9552V18.6263C4.77191 18.1167 4.46174 17.7846 3.95265 17.7846C3.68527 17.7846 3.39918 17.8734 3.19971 18.159C3.04463 17.9151 2.82538 17.7846 2.49116 17.7846C2.36689 17.7793 2.24323 17.8048 2.13124 17.8589C2.01926 17.913 1.92244 17.9941 1.84944 18.0948V17.8274H1.42859V19.9536H1.84944V18.737C1.84944 18.3627 2.07083 18.1836 2.381 18.1836C2.69116 18.1836 2.86816 18.383 2.86816 18.737V19.9552H3.28902V18.737C3.28902 18.3627 3.51041 18.1836 3.82057 18.1836C4.13073 18.1836 4.30773 18.383 4.30773 18.737V19.9552H4.77191ZM11.6821 17.8509H10.9067V17.2092H10.4869V17.8509H10.0441V18.2253H10.4869V19.2242C10.4869 19.7114 10.6639 19.9996 11.1954 19.9996C11.3968 19.9954 11.5941 19.9422 11.7703 19.8445L11.6371 19.4702C11.5177 19.5449 11.3791 19.5833 11.2382 19.5809C11.0168 19.5809 10.9061 19.4477 10.9061 19.2263V18.2082H11.6815V17.8536L11.6821 17.8509ZM15.6243 17.7846C15.5097 17.7821 15.3964 17.8093 15.2954 17.8637C15.1945 17.918 15.1093 17.9977 15.0484 18.0948V17.8274H14.6275V19.9536H15.0484V18.7595C15.0484 18.405 15.2254 18.1836 15.5136 18.1836C15.6109 18.1875 15.7074 18.2024 15.8013 18.2279L15.9345 17.829C15.8329 17.8034 15.729 17.7885 15.6243 17.7846ZM9.66656 18.006C9.44517 17.8509 9.13501 17.7846 8.80292 17.7846C8.27137 17.7846 7.93928 18.0285 7.93928 18.4493C7.93928 18.8039 8.18314 19.0028 8.64784 19.0697L8.86923 19.0916C9.11308 19.136 9.26816 19.2247 9.26816 19.3354C9.26816 19.4905 9.09116 19.6028 8.75854 19.6028C8.50456 19.608 8.2558 19.5303 8.04998 19.3814L7.82859 19.7135C8.13875 19.9349 8.51522 19.9809 8.73768 19.9809C9.358 19.9809 9.69009 19.6932 9.69009 19.2943C9.69009 18.9199 9.42271 18.7408 8.95907 18.6739L8.73768 18.652C8.53822 18.6301 8.36335 18.5632 8.36335 18.4306C8.36335 18.2755 8.54036 18.1632 8.78421 18.1632C9.05159 18.1632 9.31576 18.2739 9.44891 18.3402L9.66656 18.006ZM16.0896 18.8921C16.0896 19.5338 16.5104 19.9996 17.197 19.9996C17.5072 19.9996 17.7286 19.9333 17.95 19.7558L17.7286 19.4237C17.5718 19.5506 17.3768 19.6209 17.1751 19.6231C16.8008 19.6231 16.5104 19.3354 16.5104 18.9146C16.5104 18.4937 16.797 18.2082 17.1751 18.2082C17.3768 18.2104 17.5718 18.2807 17.7286 18.4076L17.95 18.0755C17.7286 17.8985 17.5072 17.8317 17.197 17.8317C16.5323 17.7873 16.0896 18.2525 16.0896 18.8948V18.8921ZM13.1216 17.7846C12.5013 17.7846 12.0805 18.2274 12.0805 18.8921C12.0805 19.5568 12.5232 19.9996 13.1655 19.9996C13.4779 20.0062 13.7831 19.9046 14.0291 19.7119L13.8077 19.4017C13.6298 19.5396 13.4125 19.6172 13.1874 19.6231C12.8997 19.6231 12.5896 19.4461 12.5457 19.0697H14.1184V18.8927C14.1184 18.2279 13.7195 17.7852 13.1216 17.7852V17.7846ZM13.0997 18.1836C13.4099 18.1836 13.6313 18.383 13.6532 18.7151H12.5019C12.5682 18.405 12.7692 18.1836 13.0997 18.1836ZM7.36335 18.8921V17.829H6.94249V18.0964C6.78741 17.8969 6.56816 17.7862 6.25586 17.7862C5.658 17.7862 5.21469 18.2515 5.21469 18.8937C5.21469 19.536 5.65747 20.0012 6.25586 20.0012C6.56602 20.0012 6.78741 19.8905 6.94249 19.691V19.9584H7.36335V18.8921ZM5.658 18.8921C5.658 18.4932 5.90185 18.1836 6.32271 18.1836C6.72164 18.1836 6.96442 18.4937 6.96442 18.8921C6.96442 19.313 6.69704 19.6007 6.32271 19.6007C5.90185 19.6226 5.658 19.2905 5.658 18.8921ZM22.0259 17.7846C21.9113 17.7821 21.798 17.8093 21.697 17.8637C21.5961 17.918 21.5109 17.9977 21.45 18.0948V17.8274H21.0291V19.9536H21.4495V18.7595C21.4495 18.405 21.6265 18.1836 21.9147 18.1836C22.012 18.1875 22.1085 18.2024 22.2024 18.2279L22.3355 17.829C22.234 17.8034 22.13 17.7885 22.0254 17.7846H22.0259ZM20.3869 18.8921V17.829H19.966V18.0964C19.8109 17.8969 19.5917 17.7862 19.2794 17.7862C18.6815 17.7862 18.2382 18.2515 18.2382 18.8937C18.2382 19.536 18.681 20.0012 19.2794 20.0012C19.5896 20.0012 19.8109 19.8905 19.966 19.691V19.9584H20.3869V18.8921ZM18.6815 18.8921C18.6815 18.4932 18.9254 18.1836 19.3462 18.1836C19.7452 18.1836 19.988 18.4937 19.988 18.8921C19.988 19.313 19.7206 19.6007 19.3462 19.6007C18.9254 19.6226 18.6815 19.2905 18.6815 18.8921ZM24.6618 18.8921V16.9873H24.2409V18.0948C24.0858 17.8953 23.8666 17.7846 23.5543 17.7846C22.9564 17.7846 22.5131 18.2499 22.5131 18.8921C22.5131 19.5344 22.9559 19.9996 23.5543 19.9996C23.8644 19.9996 24.0858 19.8889 24.2409 19.6894V19.9568H24.6618V18.8921ZM22.9564 18.8921C22.9564 18.4932 23.2003 18.1836 23.6211 18.1836C24.02 18.1836 24.2628 18.4937 24.2628 18.8921C24.2628 19.313 23.9954 19.6007 23.6211 19.6007C23.1997 19.6231 22.9559 19.291 22.9559 18.8921H22.9564Z" fill="currentColor"/><path d="M9.95478 7.97327C9.95505 6.76731 10.2281 5.57704 10.7536 4.49159C11.279 3.40613 12.0433 2.45361 12.989 1.70535C11.8128 0.780601 10.4002 0.205442 8.9126 0.045623C7.42499 -0.114196 5.92242 0.147775 4.57667 0.801588C3.23091 1.4554 2.09627 2.47468 1.30244 3.74289C0.508619 5.01111 0.0876465 6.47709 0.0876465 7.97327C0.0876465 9.46944 0.508619 10.9354 1.30244 12.2036C2.09627 13.4719 3.23091 14.4911 4.57667 15.1449C5.92242 15.7988 7.42499 16.0607 8.9126 15.9009C10.4002 15.7411 11.8128 15.1659 12.989 14.2412C12.0433 13.4929 11.279 12.5404 10.7536 11.4549C10.2281 10.3695 9.95505 9.17922 9.95478 7.97327Z" fill="currentColor"/><path d="M25.9019 7.97297C25.9029 9.46805 25.4832 10.9333 24.6907 12.201C23.8982 13.4688 22.7648 14.4879 21.4203 15.1418C20.0758 15.7957 18.5744 16.0579 17.0879 15.8986C15.6013 15.7393 14.1896 15.1648 13.0142 14.2409C13.9601 13.4928 14.7245 12.5403 15.25 11.4548C15.7755 10.3693 16.0485 9.17898 16.0485 7.97297C16.0485 6.76696 15.7755 5.5766 15.25 4.4911C14.7245 3.4056 13.9601 2.45312 13.0142 1.70506C14.1896 0.781104 15.6013 0.20662 17.0879 0.0473072C18.5744 -0.112005 20.0758 0.150287 21.4203 0.804186C22.7648 1.45808 23.8982 2.47719 24.6907 3.74493C25.4832 5.01268 25.9029 6.47789 25.9019 7.97297Z" fill="currentColor" fill-opacity="0.4"/><path fill-rule="evenodd" clip-rule="evenodd" d="M13.0141 1.70508H12.989C12.0432 2.45333 11.279 3.40585 10.7536 4.49131C10.2281 5.57677 9.95504 6.76704 9.95477 7.97299C9.95504 9.17894 10.2281 10.3692 10.7536 11.4547C11.279 12.5401 12.0433 13.4926 12.989 14.2409H13.0141C13.0141 14.2409 13.0141 14.2409 13.0141 14.2409C13.9601 13.4928 14.7245 12.5404 15.25 11.4549C15.7755 10.3694 16.0484 9.17899 16.0484 7.97299C16.0484 6.76698 15.7755 5.57661 15.25 4.49111C14.7245 3.40561 13.9601 2.45314 13.0141 1.70508Z" fill="currentColor" fill-opacity="0.6"/></g><defs><clipPath id="clip0_81_156"><rect width="25.8027" height="20" fill="white" transform="translate(0.0986328)"/></clipPath></defs></symbol>
	<symbol id="Visa" xmlns="http://www.w3.org/2000/svg" viewBox="0 0 40 12" fill="none" stroke="currentColor"><path d="M14.2514 11.8628L16.2325 0.237305H19.4012L17.4187 11.8628H14.2514Z" fill="currentColor"/><path d="M28.8667 0.488266C28.2389 0.252744 27.2552 0 26.0267 0C22.8956 0 20.6902 1.57674 20.6714 3.83653C20.6537 5.50698 22.2459 6.43886 23.4479 6.99494C24.6813 7.56486 25.0959 7.92824 25.09 8.437C25.0821 9.21631 24.105 9.57221 23.1942 9.57221C21.926 9.57221 21.2522 9.39601 20.2115 8.96208L19.8031 8.77728L19.3585 11.3797C20.0986 11.7043 21.4671 11.9854 22.8882 12C26.2191 12 28.3815 10.4413 28.4061 8.02807C28.4179 6.70556 27.5737 5.69921 25.7455 4.86948C24.638 4.33169 23.9597 3.97282 23.9669 3.42826C23.9669 2.94504 24.541 2.42833 25.7816 2.42833C26.8177 2.41223 27.5684 2.6382 28.1533 2.87372L28.4372 3.00787L28.8667 0.488266Z" fill="currentColor"/><path d="M37.0208 0.237305H34.5723C33.8138 0.237305 33.2461 0.444322 32.913 1.20137L28.2071 11.8552H31.5345C31.5345 11.8552 32.0785 10.4228 32.2015 10.1082C32.5651 10.1082 35.7976 10.1132 36.2597 10.1132C36.3545 10.5202 36.6452 11.8552 36.6452 11.8552H39.5855L37.0208 0.237305ZM33.136 7.74409C33.3981 7.07428 34.3985 4.49428 34.3985 4.49428C34.3798 4.52522 34.6587 3.82121 34.8186 3.38473L35.0328 4.38703C35.0328 4.38703 35.6395 7.16205 35.7663 7.74391H33.136V7.74409Z" fill="currentColor"/><path d="M0.45503 0.237305L0.414551 0.479138C1.66716 0.782359 2.78593 1.22123 3.76542 1.76717L6.57706 11.8441L9.92966 11.8404L14.9183 0.237305H11.5615L8.45929 8.16502L8.12885 6.55384C8.11337 6.50406 8.09654 6.4542 8.07932 6.40422L7.00087 1.21879C6.80912 0.482646 6.25282 0.262959 5.56461 0.237305H0.45503Z" fill="currentColor"/></symbol>		
	<symbol id="Pix" viewBox="0 0 512 512" xmlns="http://www.w3.org/2000/svg" fill="none" stroke="currentColor"> <path d="M393.072 391.897c-20.082 0-38.969-7.81-53.176-22.02l-77.069-77.067c-5.375-5.375-14.773-5.395-20.17 0l-76.784 76.786c-14.209 14.207-33.095 22.019-53.179 22.019h-9.247l97.521 97.52c30.375 30.375 79.614 30.375 109.988 0l97.239-97.238h-15.123zm-105.049 74.327c-8.55 8.53-19.93 13.25-32.05 13.25h-.02c-12.12 0-23.522-4.721-32.05-13.25l-56.855-56.855c7.875-4.613 15.165-10.248 21.758-16.84l63.948-63.948 64.23 64.23c7.637 7.66 16.188 14.013 25.478 18.952l-54.439 54.46zM310.958 22.78c-30.374-30.374-79.613-30.374-109.988 0l-97.52 97.52h9.247c20.082 0 38.97 7.834 53.178 22.02l76.784 76.785c5.57 5.592 14.622 5.57 20.17 0l77.069-77.068c14.207-14.187 33.094-22.02 53.176-22.02h15.123l-97.239-97.237zm6.028 96.346l-64.23 64.23-63.97-63.97c-6.593-6.592-13.86-12.206-21.736-16.818l56.853-56.877c17.69-17.645 46.476-17.668 64.121 0l54.44 54.461c-9.292 4.961-17.842 11.315-25.479 18.974h.001z"/> <path d="M489.149 200.97l-58.379-58.377h-37.706c-13.838 0-27.394 5.635-37.185 15.426l-77.068 77.069c-7.202 7.18-16.623 10.77-26.067 10.77-9.443 0-18.885-3.59-26.066-10.77l-76.785-76.785c-9.792-9.814-23.346-15.427-37.207-15.427h-31.81L22.78 200.97c-30.374 30.375-30.374 79.614 0 109.988l58.095 58.074 31.81.021c13.86 0 27.416-5.635 37.208-15.426l76.784-76.764c13.925-13.947 38.208-13.924 52.133-.02l77.068 77.066c9.791 9.792 23.346 15.405 37.185 15.405h37.706l58.379-58.356c30.374-30.374 30.374-79.613 0-109.988zm-362.19 129.724c-3.763 3.786-8.942 5.917-14.273 5.917H94.302l-48.59-48.564c-17.689-17.69-17.689-46.476 0-64.143L94.3 175.296h18.385c5.331 0 10.51 2.154 14.295 5.918l74.74 74.74-74.761 74.74zm339.257-42.647l-48.848 48.87h-24.305c-5.309 0-10.508-2.155-14.251-5.92l-75.023-75.043 75.023-75.023c3.743-3.764 8.942-5.918 14.252-5.918h24.304l48.847 48.891c8.573 8.551 13.273 19.93 13.273 32.05 0 12.141-4.7 23.52-13.273 32.093z"/></symbol>
	<symbol id="Facebook" xmlns="http://www.w3.org/2000/svg" viewBox="0 0 24 24" stroke="currentColor" fill="none" stroke-linecap="round" stroke-linejoin="round"><path stroke="none" d="M0 0h24v24H0z" fill="none" /><path d="M7 10v4h3v7h4v-7h3l1 -4h-4v-2a1 1 0 0 1 1 -1h3v-4h-3a5 5 0 0 0 -5 5v2h-3" /></symbol>
	<symbol id="Instagram" xmlns="http://www.w3.org/2000/svg" viewBox="0 0 24 24" stroke="currentColor" fill="none" stroke-linecap="round" stroke-linejoin="round"><path stroke="none" d="M0 0h24v24H0z" fill="none" /><rect x="4" y="4" width="16" height="16" rx="4" /><circle cx="12" cy="12" r="3" /><line x1="16.5" y1="7.5" x2="16.5" y2="7.501" /></symbol>
	<symbol id="Tiktok" xmlns="http://www.w3.org/2000/svg" viewBox="0 0 24 24" stroke="currentColor" fill="none" stroke-linecap="round" stroke-linejoin="round"><path stroke="none" d="M0 0h24v24H0z" fill="none" /><path d="M9 12a4 4 0 1 0 4 4v-12a5 5 0 0 0 5 5" /></symbol>
	<symbol id="Truck" xmlns="http://www.w3.org/2000/svg"  viewBox="0 0 36 28" stroke="currentColor" fill="none"><path d="M14 22.333C14 24.174 12.5077 25.6663 10.6667 25.6663C8.82576 25.6663 7.33337 24.174 7.33337 22.333M14 22.333C14 20.4921 12.5077 18.9997 10.6667 18.9997C8.82576 18.9997 7.33337 20.4921 7.33337 22.333M14 22.333H24M7.33337 22.333H4.00004V15.6663M30.6667 22.333C30.6667 24.174 29.1743 25.6663 27.3334 25.6663C25.4924 25.6663 24 24.174 24 22.333M30.6667 22.333C30.6667 20.4921 29.1743 18.9997 27.3334 18.9997C25.4924 18.9997 24 20.4921 24 22.333M30.6667 22.333H34V12.333M2.33337 2.33301H20.6667V22.333M34 12.333H20.6667M34 12.333L29 3.99967H20.6667M4.00004 8.99967H10.6667" stroke-linecap="round" stroke-linejoin="round"/></symbol>
	<symbol id="Discount" xmlns="http://www.w3.org/2000/svg" viewBox="0 0 34 34" stroke="currentColor" fill="none"><path d="M12 21.9998L22 11.9998M13.6667 12.8332C13.6667 13.2934 13.2936 13.6665 12.8333 13.6665C12.3731 13.6665 12 13.2934 12 12.8332C12 12.3729 12.3731 11.9998 12.8333 11.9998C13.2936 11.9998 13.6667 12.3729 13.6667 12.8332ZM22 21.1665C22 21.6267 21.6269 21.9998 21.1667 21.9998C20.7064 21.9998 20.3333 21.6267 20.3333 21.1665C20.3333 20.7063 20.7064 20.3332 21.1667 20.3332C21.6269 20.3332 22 20.7063 22 21.1665ZM5.33334 8.99979C5.33334 8.02733 5.71965 7.0947 6.40728 6.40707C7.09491 5.71943 8.02755 5.33313 9.00001 5.33313H10.6667C11.6348 5.33257 12.5635 4.94913 13.25 4.26646L14.4167 3.09979C14.7574 2.75713 15.1625 2.4852 15.6087 2.29964C16.0549 2.11408 16.5334 2.01855 17.0167 2.01855C17.4999 2.01855 17.9784 2.11408 18.4246 2.29964C18.8708 2.4852 19.2759 2.75713 19.6167 3.09979L20.7833 4.26646C21.4699 4.94913 22.3985 5.33257 23.3667 5.33313H25.0333C26.0058 5.33313 26.9384 5.71943 27.6261 6.40707C28.3137 7.0947 28.7 8.02733 28.7 8.99979V10.6665C28.7006 11.6346 29.084 12.5633 29.7667 13.2498L30.9333 14.4165C31.276 14.7572 31.5479 15.1623 31.7335 15.6085C31.9191 16.0547 32.0146 16.5332 32.0146 17.0165C32.0146 17.4997 31.9191 17.9782 31.7335 18.4244C31.5479 18.8706 31.276 19.2757 30.9333 19.6165L29.7667 20.7831C29.084 21.4696 28.7006 22.3983 28.7 23.3665V25.0331C28.7 26.0056 28.3137 26.9382 27.6261 27.6259C26.9384 28.3135 26.0058 28.6998 25.0333 28.6998H23.3667C22.3985 28.7003 21.4699 29.0838 20.7833 29.7665L19.6167 30.9331C19.2759 31.2758 18.8708 31.5477 18.4246 31.7333C17.9784 31.9188 17.4999 32.0144 17.0167 32.0144C16.5334 32.0144 16.0549 31.9188 15.6087 31.7333C15.1625 31.5477 14.7574 31.2758 14.4167 30.9331L13.25 29.7665C12.5635 29.0838 11.6348 28.7003 10.6667 28.6998H9.00001C8.02755 28.6998 7.09491 28.3135 6.40728 27.6259C5.71965 26.9382 5.33334 26.0056 5.33334 25.0331V23.3665C5.33279 22.3983 4.94934 21.4696 4.26667 20.7831L3.10001 19.6165C2.75734 19.2757 2.48541 18.8706 2.29985 18.4244C2.11429 17.9782 2.01877 17.4997 2.01877 17.0165C2.01877 16.5332 2.11429 16.0547 2.29985 15.6085C2.48541 15.1623 2.75734 14.7572 3.10001 14.4165L4.26667 13.2498C4.94934 12.5633 5.33279 11.6346 5.33334 10.6665V8.99979Z" stroke-linecap="round" stroke-linejoin="round"/></symbol>
	<symbol id="Return" xmlns="http://www.w3.org/2000/svg" viewBox="0 0 34 30" stroke="currentColor" fill="none"><path d="M32 6.66699H2M32 6.66699L27 11.667M32 6.66699L27 1.66699M7 28.3337L2 23.3337M2 23.3337L7 18.3337M2 23.3337H32" stroke-linecap="round" stroke-linejoin="round"/></symbol>			
	<symbol id="CreditCard" xmlns="http://www.w3.org/2000/svg" viewBox="0 0 34 28" stroke="currentColor" fill="none"><path d="M2 10.6663H32M8.66667 18.9997H8.68333M15.3333 18.9997H18.6667M7 2.33301H27C29.7614 2.33301 32 4.57158 32 7.33301V20.6663C32 23.4278 29.7614 25.6663 27 25.6663H7C4.23858 25.6663 2 23.4278 2 20.6663V7.33301C2 4.57158 4.23858 2.33301 7 2.33301Z" stroke-linecap="round" stroke-linejoin="round"/></symbol>		
	<symbol id="Deco" xmlns="http://www.w3.org/2000/svg" viewBox="0 0 58 20" stroke="currentColor" fill="none"><path d="M49.5359 16.9432C47.3666 16.9432 46.9948 14.8019 47.6797 12.7178C48.2221 11.0615 49.5066 9.31991 51.4201 9.31991C53.676 9.31991 53.9039 11.6038 53.247 13.6026C52.6753 15.3162 51.3908 16.9432 49.5359 16.9432ZM48.879 19.9973C52.6473 19.9973 56.0159 17.9133 57.3578 14.1449C58.7569 10.1767 57.1859 6.2085 52.0477 6.2085C47.9369 6.2085 44.7962 8.77758 43.5969 12.1755C42.2551 16.0011 43.7115 19.9973 48.879 19.9973ZM36.3747 19.9973C37.8591 19.9973 39.3729 19.6829 40.4282 19.2271C40.8 18.1998 40.828 17.2004 40.5428 16.201C39.8006 16.4862 38.7732 16.7727 37.7165 16.7727C34.861 16.7727 34.6051 14.6606 35.2048 12.8617C35.8617 10.9496 37.574 9.40786 40.287 9.40786C41.0012 9.40786 41.6861 9.52246 42.1138 9.77963C42.856 8.78025 43.2838 7.78086 43.3704 6.7535C42.7428 6.46834 41.6861 6.21117 40.3163 6.21117C35.863 6.21117 32.3505 8.80956 31.0953 12.406C29.896 15.8039 30.8101 20 36.3774 20L36.3747 19.9973ZM21.0442 11.8037C21.8143 10.0901 23.0136 9.09206 24.5846 9.09206C25.9838 9.09206 26.2116 9.86225 25.9838 10.4619C25.6413 11.2894 24.47 11.8037 21.0442 11.8037ZM22.2714 19.9973C23.7278 19.9973 25.7826 19.7122 27.4962 18.8554C27.7813 17.9133 27.7534 16.9712 27.4389 15.9998C26.3542 16.5421 24.8405 16.8566 23.4707 16.8566C21.4439 16.8566 20.3299 16.1997 20.3592 14.5447C25.8972 14.6873 28.7807 13.6879 29.7228 11.2334C30.6649 8.7496 29.0379 6.2085 25.1829 6.2085C21.0721 6.2085 18.046 9.14935 16.932 12.3181C15.7621 15.6867 16.5043 19.9973 22.2701 19.9973H22.2714ZM5.72293 19.9973C9.52059 19.9973 11.6806 18.2557 14.1924 12.9177C15.5622 9.97684 16.7335 7.09329 18.0753 4.23905L19.6743 4.7534C20.1021 4.89598 20.3313 4.6388 20.1314 4.23905L18.1899 0.270827C18.0473 -0.0143302 17.7329 -0.0436454 17.533 0.0429678L12.708 1.86984C12.3082 2.01242 12.3362 2.38419 12.7359 2.49745L14.1631 2.95451C12.9931 5.6102 11.5367 9.60641 10.3654 12.1182C9.05155 14.9165 8.39595 16.8859 6.16933 16.8859C3.9427 16.8859 3.57093 15.1443 4.51301 12.6605C5.59768 9.77697 7.42455 8.92016 9.5086 9.51979C10.0802 8.72028 10.508 7.52103 10.6785 6.43636C10.0789 6.26447 9.36469 6.2085 8.76639 6.2085C5.3978 6.2085 2.05719 7.95009 0.687373 11.6038C-1.0822 16.3143 0.554122 19.9973 5.7216 19.9973H5.72293Z" fill="currentColor"/></symbol>
	<symbol id="FilterList" xmlns="http://www.w3.org/2000/svg" viewBox="0 0 16 16" fill="none"><path d="M6.66667 12H9.33333V10.6667H6.66667V12ZM2 4V5.33333H14V4H2ZM4 8.66667H12V7.33333H4V8.66667Z" fill="currentColor"/></symbol>
	<symbol id="ChevronUp" xmlns="http://www.w3.org/2000/svg" viewBox="0 0 16 16" stroke="currentColor" fill="none"><path fill-rule="evenodd" clip-rule="evenodd" d="M7.52851 5.52827C7.78886 5.26792 8.21097 5.26792 8.47132 5.52827L12.4713 9.52827C12.7317 9.78862 12.7317 10.2107 12.4713 10.4711C12.211 10.7314 11.7889 10.7314 11.5285 10.4711L7.99992 6.94248L4.47132 10.4711C4.21097 10.7314 3.78886 10.7314 3.52851 10.4711C3.26816 10.2107 3.26816 9.78862 3.52851 9.52827L7.52851 5.52827Z" fill="black"/></symbol>
	<symbol id="Trash" width="20" height="20" viewBox="0 0 20 20" fill="none" xmlns="http://www.w3.org/2000/svg"><path fill-rule="evenodd" clip-rule="evenodd" d="M7.15482 2.15483C7.46738 1.84227 7.89131 1.66667 8.33333 1.66667H11.6667C12.1087 1.66667 12.5326 1.84227 12.8452 2.15483C13.1577 2.46739 13.3333 2.89131 13.3333 3.33334V5H15.8236C15.8295 4.99994 15.8353 4.99994 15.8412 5H16.6667C17.1269 5 17.5 5.3731 17.5 5.83334C17.5 6.29357 17.1269 6.66667 16.6667 6.66667H16.6001L15.833 15.8715C15.8231 16.5207 15.5609 17.1413 15.1011 17.6011C14.6323 18.0699 13.9964 18.3333 13.3333 18.3333H6.66667C6.00362 18.3333 5.36774 18.0699 4.8989 17.6011C4.43906 17.1413 4.17685 16.5207 4.16696 15.8715L3.39989 6.66667H3.33333C2.8731 6.66667 2.5 6.29357 2.5 5.83334C2.5 5.3731 2.8731 5 3.33333 5H4.15878C4.16467 4.99994 4.17055 4.99994 4.17641 5H6.66667V3.33334C6.66667 2.89131 6.84226 2.46739 7.15482 2.15483ZM5.07233 6.66667L5.83045 15.7641C5.83237 15.7871 5.83333 15.8102 5.83333 15.8333C5.83333 16.0543 5.92113 16.2663 6.07741 16.4226C6.23369 16.5789 6.44565 16.6667 6.66667 16.6667H13.3333C13.5543 16.6667 13.7663 16.5789 13.9226 16.4226C14.0789 16.2663 14.1667 16.0543 14.1667 15.8333C14.1667 15.8102 14.1676 15.7871 14.1695 15.7641L14.9277 6.66667H5.07233ZM11.6667 5H8.33333V3.33334H11.6667V5ZM8.33333 8.33334C8.79357 8.33334 9.16667 8.70643 9.16667 9.16667V14.1667C9.16667 14.6269 8.79357 15 8.33333 15C7.8731 15 7.5 14.6269 7.5 14.1667V9.16667C7.5 8.70643 7.8731 8.33334 8.33333 8.33334ZM11.6667 8.33334C12.1269 8.33334 12.5 8.70643 12.5 9.16667V14.1667C12.5 14.6269 12.1269 15 11.6667 15C11.2064 15 10.8333 14.6269 10.8333 14.1667V9.16667C10.8333 8.70643 11.2064 8.33334 11.6667 8.33334Z" fill="currentColor"/></symbol>
	<symbol id="WhatsApp"  xmlns="http://www.w3.org/2000/svg" viewBox="0 0 18 18" fill="none" ><path fill-rule="evenodd" clip-rule="evenodd" d="M13.333 3.94275C12.0977 2.88909 10.5203 2.32246 8.89688 2.34921C7.27345 2.37596 5.71558 2.99425 4.51564 4.08804C3.3157 5.18184 2.55617 6.67594 2.3796 8.28996C2.20302 9.90398 2.62153 11.527 3.5566 12.8543C3.72398 13.0919 3.75547 13.3996 3.63972 13.6661L2.88341 15.408L5.56246 14.9305C5.73665 14.8995 5.9162 14.9247 6.07512 15.0025C7.53336 15.7165 9.20204 15.8737 10.768 15.4448C12.334 15.0158 13.6896 14.0301 14.5804 12.6727C15.4712 11.3152 15.836 9.67933 15.6064 8.07201C15.3767 6.46468 14.5684 4.99641 13.333 3.94275ZM8.86942 0.682773C10.8987 0.649334 12.8704 1.35761 14.4146 2.67469C15.9588 3.99177 16.9692 5.8271 17.2563 7.83626C17.5433 9.84542 17.0873 11.8903 15.9738 13.5871C14.8603 15.2839 13.1658 16.516 11.2083 17.0522C9.34061 17.5638 7.35601 17.4083 5.59455 16.6177L1.64654 17.3213C1.34428 17.3752 1.03687 17.2585 0.846507 17.0176C0.656144 16.7767 0.613663 16.4506 0.735949 16.169L1.93091 13.417C0.947723 11.8367 0.519412 9.96793 0.722814 8.1087C0.943534 6.09118 1.89294 4.22355 3.39287 2.85631C4.8928 1.48907 6.84013 0.716212 8.86942 0.682773ZM6.03312 5.61685C6.26754 5.38243 6.58548 5.25073 6.917 5.25073C7.24852 5.25073 7.56646 5.38243 7.80088 5.61685C8.03531 5.85127 8.167 6.16921 8.167 6.50073V7.33407C8.167 7.66558 8.03531 7.98353 7.80088 8.21795C7.71659 8.30224 7.62149 8.37326 7.51885 8.42964C7.68255 8.89999 7.95113 9.33224 8.30998 9.69109C8.66883 10.0499 9.10107 10.3185 9.57143 10.4822C9.62781 10.3796 9.69882 10.2845 9.78312 10.2002C10.0175 9.96576 10.3355 9.83407 10.667 9.83407H11.5003C11.8319 9.83407 12.1498 9.96576 12.3842 10.2002C12.6186 10.4346 12.7503 10.7525 12.7503 11.0841C12.7503 11.4156 12.6186 11.7335 12.3842 11.9679C12.1498 12.2024 11.8319 12.3341 11.5003 12.3341H10.667C9.34092 12.3341 8.06915 11.8073 7.13147 10.8696C6.19378 9.93192 5.667 8.66015 5.667 7.33407V6.50073C5.667 6.16921 5.79869 5.85127 6.03312 5.61685Z" fill="currentColor"/></symbol>
	<symbol id="ArrowsPointingOut" xmlns="http://www.w3.org/2000/svg" fill="none" viewBox="0 0 24 24"><path stroke-linecap="round" stroke-linejoin="round" d="M3.75 3.75v4.5m0-4.5h4.5m-4.5 0L9 9M3.75 20.25v-4.5m0 4.5h4.5m-4.5 0L9 15M20.25 3.75h-4.5m4.5 0v4.5m0-4.5L15 9m5.25 11.25h-4.5m4.5 0v-4.5m0 4.5L15 15" /></symbol>
	<symbol id="ArrowLeft" xmlns="http://www.w3.org/2000/svg" viewbox="0 0 8 17" fill="none"><path d="M12 4.0271L10.59 5.4371L16.17 11.0271H4V13.0271H16.17L10.59 18.6171L12 20.0271L20 12.0271L12 4.0271Z" fill="currentColor"/></symbol>
	<symbol id="ArrowRight" xmlns="http://www.w3.org/2000/svg" viewbox="0 0 8 17" fill="none"><path d="M20 11.0271H7.83L13.42 5.4371L12 4.0271L4 12.0271L12 20.0271L13.41 18.6171L7.83 13.0271H20V11.0271Z" fill="currentColor"/></symbol>
	<symbol id="About"  xmlns="http://www.w3.org/2000/svg" viewBox="0 0 24 24" fill="none"><path xmlns="http://www.w3.org/2000/svg" id="Vector" d="M2.55 11.85C2.62879 11.9091 2.71845 11.9521 2.81386 11.9765C2.90927 12.001 3.00856 12.0064 3.10607 11.9924C3.20357 11.9785 3.29737 11.9455 3.38212 11.8953C3.46687 11.8452 3.54091 11.7788 3.6 11.7C4.05409 11.0945 4.64291 10.6031 5.31983 10.2647C5.99675 9.92619 6.74318 9.74999 7.5 9.74999C8.25682 9.74999 9.00325 9.92619 9.68017 10.2647C10.3571 10.6031 10.9459 11.0945 11.4 11.7C11.5195 11.859 11.6972 11.964 11.8941 11.9919C12.091 12.0199 12.291 11.9685 12.45 11.849C12.5067 11.8069 12.5569 11.7567 12.5991 11.7C13.0532 11.0945 13.642 10.6031 14.3189 10.2647C14.9958 9.92619 15.7422 9.74999 16.4991 9.74999C17.2559 9.74999 18.0023 9.92619 18.6792 10.2647C19.3561 10.6031 19.945 11.0945 20.3991 11.7C20.5185 11.8591 20.6963 11.9643 20.8933 11.9923C21.0903 12.0204 21.2904 11.969 21.4495 11.8495C21.6087 11.73 21.7138 11.5523 21.7419 11.3553C21.7699 11.1583 21.7185 10.9582 21.5991 10.799C20.9352 9.90905 20.0499 9.20833 19.0312 8.76655C19.5897 8.25668 19.981 7.58988 20.1537 6.85367C20.3264 6.11746 20.2725 5.34623 19.9991 4.64119C19.7256 3.93616 19.2454 3.33026 18.6215 2.90302C17.9976 2.47578 17.259 2.24716 16.5028 2.24716C15.7466 2.24716 15.0081 2.47578 14.3841 2.90302C13.7602 3.33026 13.28 3.93616 13.0066 4.64119C12.7331 5.34623 12.6792 6.11746 12.8519 6.85367C13.0247 7.58988 13.4159 8.25668 13.9744 8.76655C13.2389 9.0846 12.5707 9.53991 12.0056 10.1081C11.4406 9.53991 10.7724 9.0846 10.0369 8.76655C10.5953 8.25668 10.9866 7.58988 11.1593 6.85367C11.332 6.11746 11.2781 5.34623 11.0047 4.64119C10.7313 3.93616 10.2511 3.33026 9.62712 2.90302C9.00317 2.47578 8.26464 2.24716 7.50844 2.24716C6.75224 2.24716 6.0137 2.47578 5.38976 2.90302C4.76581 3.33026 4.28561 3.93616 4.01218 4.64119C3.73874 5.34623 3.68484 6.11746 3.85756 6.85367C4.03028 7.58988 4.42154 8.25668 4.98 8.76655C3.95686 9.20689 3.06722 9.90806 2.4 10.8C2.34091 10.8788 2.29791 10.9684 2.27346 11.0639C2.24902 11.1593 2.24361 11.2586 2.25754 11.3561C2.27147 11.4536 2.30446 11.5474 2.35464 11.6321C2.40483 11.7169 2.47121 11.7909 2.55 11.85ZM16.5 3.74999C16.945 3.74999 17.38 3.88195 17.75 4.12918C18.12 4.37641 18.4084 4.72781 18.5787 5.13895C18.749 5.55008 18.7936 6.00248 18.7068 6.43894C18.62 6.8754 18.4057 7.27631 18.091 7.59098C17.7763 7.90564 17.3754 8.11994 16.939 8.20675C16.5025 8.29357 16.0501 8.24901 15.639 8.07872C15.2278 7.90842 14.8764 7.62003 14.6292 7.25002C14.382 6.88001 14.25 6.44499 14.25 5.99999C14.25 5.40325 14.4871 4.83095 14.909 4.409C15.331 3.98704 15.9033 3.74999 16.5 3.74999ZM7.5 3.74999C7.94501 3.74999 8.38002 3.88195 8.75003 4.12918C9.12004 4.37641 9.40843 4.72781 9.57873 5.13895C9.74903 5.55008 9.79358 6.00248 9.70677 6.43894C9.61995 6.8754 9.40566 7.27631 9.09099 7.59098C8.77632 7.90564 8.37541 8.11994 7.93895 8.20675C7.5025 8.29357 7.0501 8.24901 6.63896 8.07872C6.22783 7.90842 5.87643 7.62003 5.62919 7.25002C5.38196 6.88001 5.25 6.44499 5.25 5.99999C5.25 5.40325 5.48705 4.83095 5.90901 4.409C6.33097 3.98704 6.90326 3.74999 7.5 3.74999ZM19.0312 18.5165C19.5897 18.0067 19.981 17.3399 20.1537 16.6037C20.3264 15.8675 20.2725 15.0962 19.9991 14.3912C19.7256 13.6862 19.2454 13.0803 18.6215 12.653C17.9976 12.2258 17.259 11.9972 16.5028 11.9972C15.7466 11.9972 15.0081 12.2258 14.3841 12.653C13.7602 13.0803 13.28 13.6862 13.0066 14.3912C12.7331 15.0962 12.6792 15.8675 12.8519 16.6037C13.0247 17.3399 13.4159 18.0067 13.9744 18.5165C13.2389 18.8346 12.5707 19.2899 12.0056 19.8581C11.4406 19.2899 10.7724 18.8346 10.0369 18.5165C10.5953 18.0067 10.9866 17.3399 11.1593 16.6037C11.332 15.8675 11.2781 15.0962 11.0047 14.3912C10.7313 13.6862 10.2511 13.0803 9.62712 12.653C9.00317 12.2258 8.26464 11.9972 7.50844 11.9972C6.75224 11.9972 6.0137 12.2258 5.38976 12.653C4.76581 13.0803 4.28561 13.6862 4.01218 14.3912C3.73874 15.0962 3.68484 15.8675 3.85756 16.6037C4.03028 17.3399 4.42154 18.0067 4.98 18.5165C3.95686 18.9569 3.06722 19.6581 2.4 20.55C2.34091 20.6288 2.29791 20.7184 2.27346 20.8139C2.24902 20.9093 2.24361 21.0086 2.25754 21.1061C2.27147 21.2036 2.30446 21.2974 2.35464 21.3821C2.40483 21.4669 2.47121 21.5409 2.55 21.6C2.62879 21.6591 2.71845 21.7021 2.81386 21.7265C2.90927 21.751 3.00856 21.7564 3.10607 21.7424C3.20357 21.7285 3.29737 21.6955 3.38212 21.6453C3.46687 21.5952 3.54091 21.5288 3.6 21.45C4.05409 20.8445 4.64291 20.3531 5.31983 20.0147C5.99675 19.6762 6.74318 19.5 7.5 19.5C8.25682 19.5 9.00325 19.6762 9.68017 20.0147C10.3571 20.3531 10.9459 20.8445 11.4 21.45C11.5195 21.609 11.6972 21.714 11.8941 21.7419C12.091 21.7699 12.291 21.7185 12.45 21.599C12.5067 21.5569 12.5569 21.5067 12.5991 21.45C13.0532 20.8445 13.642 20.3531 14.3189 20.0147C14.9958 19.6762 15.7422 19.5 16.4991 19.5C17.2559 19.5 18.0023 19.6762 18.6792 20.0147C19.3561 20.3531 19.945 20.8445 20.3991 21.45C20.5185 21.6091 20.6963 21.7143 20.8933 21.7423C21.0903 21.7704 21.2904 21.719 21.4495 21.5995C21.6087 21.48 21.7138 21.3023 21.7419 21.1053C21.7699 20.9083 21.7185 20.7082 21.5991 20.549C20.9352 19.659 20.0499 18.9583 19.0312 18.5165ZM7.5 13.5C7.94501 13.5 8.38002 13.6319 8.75003 13.8792C9.12004 14.1264 9.40843 14.4778 9.57873 14.8889C9.74903 15.3001 9.79358 15.7525 9.70677 16.1889C9.61995 16.6254 9.40566 17.0263 9.09099 17.341C8.77632 17.6556 8.37541 17.8699 7.93895 17.9568C7.5025 18.0436 7.0501 17.999 6.63896 17.8287C6.22783 17.6584 5.87643 17.37 5.62919 17C5.38196 16.63 5.25 16.195 5.25 15.75C5.25 15.1532 5.48705 14.581 5.90901 14.159C6.33097 13.737 6.90326 13.5 7.5 13.5ZM16.5 13.5C16.945 13.5 17.38 13.6319 17.75 13.8792C18.12 14.1264 18.4084 14.4778 18.5787 14.8889C18.749 15.3001 18.7936 15.7525 18.7068 16.1889C18.62 16.6254 18.4057 17.0263 18.091 17.341C17.7763 17.6556 17.3754 17.8699 16.939 17.9568C16.5025 18.0436 16.0501 17.999 15.639 17.8287C15.2278 17.6584 14.8764 17.37 14.6292 17C14.382 16.63 14.25 16.195 14.25 15.75C14.25 15.1532 14.4871 14.581 14.909 14.159C15.331 13.737 15.9033 13.5 16.5 13.5Z" fill="white"/></symbol>
	<symbol id="food-green" xmlns="http://www.w3.org/2000/svg" width="24" height="24" viewBox="0 0 24 24" fill="none">
		<path d="M21 9.75012H20.2153C20.0269 7.70157 19.0799 5.79733 17.56 4.41089C16.0402 3.02445 14.0572 2.25586 12 2.25586C9.94279 2.25586 7.95981 3.02445 6.43998 4.41089C4.92015 5.79733 3.97314 7.70157 3.78469 9.75012H3C2.80109 9.75012 2.61032 9.82914 2.46967 9.96979C2.32902 10.1104 2.25 10.3012 2.25 10.5001C2.2533 12.2837 2.74415 14.0325 3.66948 15.5573C4.59481 17.0821 5.9194 18.3249 7.5 19.1514V19.5001C7.5 19.8979 7.65804 20.2795 7.93934 20.5608C8.22064 20.8421 8.60218 21.0001 9 21.0001H15C15.3978 21.0001 15.7794 20.8421 16.0607 20.5608C16.342 20.2795 16.5 19.8979 16.5 19.5001V19.1514C18.0806 18.3249 19.4052 17.0821 20.3305 15.5573C21.2558 14.0325 21.7467 12.2837 21.75 10.5001C21.75 10.3012 21.671 10.1104 21.5303 9.96979C21.3897 9.82914 21.1989 9.75012 21 9.75012ZM18.7069 9.75012H13.8862C14.7955 8.38595 16.1712 7.40029 17.7553 6.97793C18.2733 7.82042 18.5982 8.76714 18.7069 9.75012ZM16.2638 5.27168C16.4356 5.41231 16.6003 5.56075 16.7578 5.717C14.7613 6.41933 13.1114 7.86275 12.15 9.74825H9.38437C9.85313 8.43427 10.7161 7.29706 11.8555 6.49198C12.9948 5.68689 14.3549 5.25319 15.75 5.25012C15.9216 5.25012 16.0931 5.25856 16.2638 5.27168ZM12 3.75012C12.6018 3.75052 13.2009 3.83155 13.7812 3.99106C12.3679 4.34166 11.072 5.05863 10.024 6.0697C8.97606 7.08078 8.21316 8.35023 7.81219 9.75012H5.29312C5.47917 8.10093 6.26562 6.57787 7.50254 5.47132C8.73946 4.36476 10.3403 3.75209 12 3.75012ZM15.4369 18.0001C15.306 18.0602 15.1953 18.1567 15.1178 18.2781C15.0404 18.3994 14.9994 18.5405 15 18.6845V19.5001H9V18.6845C9.00055 18.5405 8.95965 18.3994 8.88218 18.2781C8.80471 18.1567 8.69395 18.0602 8.56312 18.0001C7.24417 17.3932 6.10807 16.45 5.26885 15.2652C4.42963 14.0804 3.91681 12.6957 3.78188 11.2501H20.2153C20.0806 12.6954 19.5682 14.0799 18.7295 15.2647C17.8908 16.4494 16.7553 17.3928 15.4369 18.0001Z" fill="#00754A"/>
	</symbol>
	<symbol id="food-white" xmlns="http://www.w3.org/2000/svg" width="24" height="24" viewBox="0 0 24 24" fill="none">
		<path d="M21 9.75012H20.2153C20.0269 7.70157 19.0799 5.79733 17.56 4.41089C16.0402 3.02445 14.0572 2.25586 12 2.25586C9.94279 2.25586 7.95981 3.02445 6.43998 4.41089C4.92015 5.79733 3.97314 7.70157 3.78469 9.75012H3C2.80109 9.75012 2.61032 9.82914 2.46967 9.96979C2.32902 10.1104 2.25 10.3012 2.25 10.5001C2.2533 12.2837 2.74415 14.0325 3.66948 15.5573C4.59481 17.0821 5.9194 18.3249 7.5 19.1514V19.5001C7.5 19.8979 7.65804 20.2795 7.93934 20.5608C8.22064 20.8421 8.60218 21.0001 9 21.0001H15C15.3978 21.0001 15.7794 20.8421 16.0607 20.5608C16.342 20.2795 16.5 19.8979 16.5 19.5001V19.1514C18.0806 18.3249 19.4052 17.0821 20.3305 15.5573C21.2558 14.0325 21.7467 12.2837 21.75 10.5001C21.75 10.3012 21.671 10.1104 21.5303 9.96979C21.3897 9.82914 21.1989 9.75012 21 9.75012ZM18.7069 9.75012H13.8862C14.7955 8.38595 16.1712 7.40029 17.7553 6.97793C18.2733 7.82042 18.5982 8.76714 18.7069 9.75012ZM16.2638 5.27168C16.4356 5.41231 16.6003 5.56075 16.7578 5.717C14.7613 6.41933 13.1114 7.86275 12.15 9.74825H9.38437C9.85313 8.43427 10.7161 7.29706 11.8555 6.49198C12.9948 5.68689 14.3549 5.25319 15.75 5.25012C15.9216 5.25012 16.0931 5.25856 16.2638 5.27168ZM12 3.75012C12.6018 3.75052 13.2009 3.83155 13.7812 3.99106C12.3679 4.34166 11.072 5.05863 10.024 6.0697C8.97606 7.08078 8.21316 8.35023 7.81219 9.75012H5.29312C5.47917 8.10093 6.26562 6.57787 7.50254 5.47132C8.73946 4.36476 10.3403 3.75209 12 3.75012ZM15.4369 18.0001C15.306 18.0602 15.1953 18.1567 15.1178 18.2781C15.0404 18.3994 14.9994 18.5405 15 18.6845V19.5001H9V18.6845C9.00055 18.5405 8.95965 18.3994 8.88218 18.2781C8.80471 18.1567 8.69395 18.0602 8.56312 18.0001C7.24417 17.3932 6.10807 16.45 5.26885 15.2652C4.42963 14.0804 3.91681 12.6957 3.78188 11.2501H20.2153C20.0806 12.6954 19.5682 14.0799 18.7295 15.2647C17.8908 16.4494 16.7553 17.3928 15.4369 18.0001Z" fill="#00754A"/>
	</symbol>
	<symbol id="PhoneCall" xmlns="http://www.w3.org/2000/svg" viewBox="0 0 24 24" fil="none"><path xmlns="http://www.w3.org/2000/svg" id="Vector" d="M13.5253 4.30599C13.5508 4.21081 13.5947 4.12158 13.6547 4.04339C13.7147 3.9652 13.7894 3.8996 13.8748 3.85032C13.9601 3.80104 14.0543 3.76906 14.152 3.7562C14.2496 3.74334 14.3489 3.74985 14.4441 3.77537C15.8344 4.13813 17.103 4.86497 18.119 5.88103C19.1351 6.89708 19.8619 8.16562 20.2247 9.55599C20.2502 9.65116 20.2567 9.75042 20.2439 9.84811C20.231 9.94579 20.199 10.04 20.1497 10.1253C20.1005 10.2106 20.0349 10.2854 19.9567 10.3454C19.8785 10.4053 19.7893 10.4493 19.6941 10.4747C19.6307 10.4914 19.5655 10.4999 19.5 10.5001C19.3349 10.5001 19.1743 10.4456 19.0433 10.3451C18.9122 10.2446 18.8181 10.1036 18.7753 9.94412C18.4796 8.80893 17.8865 7.77316 17.0571 6.9436C16.2277 6.11403 15.192 5.52069 14.0569 5.22474C13.9616 5.19938 13.8723 5.15549 13.794 5.09558C13.7157 5.03566 13.65 4.9609 13.6006 4.87557C13.5513 4.79024 13.5192 4.69601 13.5063 4.59828C13.4933 4.50054 13.4998 4.40122 13.5253 4.30599ZM13.3069 8.22474C14.5997 8.56974 15.4303 9.4013 15.7753 10.6941C15.8181 10.8536 15.9122 10.9946 16.0433 11.0951C16.1743 11.1956 16.3349 11.2501 16.5 11.2501C16.5655 11.2499 16.6307 11.2414 16.6941 11.2247C16.7893 11.1993 16.8785 11.1553 16.9567 11.0954C17.0349 11.0354 17.1005 10.9606 17.1497 10.8753C17.199 10.79 17.231 10.6958 17.2439 10.5981C17.2567 10.5004 17.2502 10.4012 17.2247 10.306C16.7447 8.50974 15.4903 7.25537 13.6941 6.77537C13.5019 6.72402 13.2971 6.75113 13.1249 6.85073C12.9527 6.95033 12.8271 7.11426 12.7758 7.30646C12.7244 7.49866 12.7516 7.70338 12.8512 7.87559C12.9508 8.04781 13.1147 8.1734 13.3069 8.22474ZM20.0972 15.6057L15.6806 13.6266L15.6684 13.621C15.4392 13.5229 15.189 13.4836 14.9407 13.5065C14.6924 13.5294 14.4537 13.6139 14.2463 13.7522C14.2218 13.7684 14.1984 13.7859 14.1759 13.8047L11.8941 15.7501C10.4484 15.0479 8.95595 13.5666 8.25376 12.1397L10.2019 9.82318C10.2206 9.79974 10.2384 9.7763 10.2553 9.75099C10.3907 9.54409 10.4729 9.30692 10.4945 9.06059C10.5161 8.81427 10.4764 8.56642 10.3791 8.33912V8.32787L8.39438 3.9038C8.2657 3.60687 8.04444 3.35951 7.76362 3.19865C7.4828 3.0378 7.1575 2.97208 6.83626 3.0113C5.56592 3.17847 4.39986 3.80234 3.55588 4.76639C2.7119 5.73045 2.24771 6.96876 2.25001 8.25005C2.25001 15.6938 8.30626 21.7501 15.75 21.7501C17.0313 21.7523 18.2696 21.2882 19.2337 20.4442C20.1977 19.6002 20.8216 18.4341 20.9888 17.1638C21.0281 16.8427 20.9625 16.5174 20.8018 16.2366C20.6411 15.9558 20.394 15.7345 20.0972 15.6057Z" fill="#154734"/></symbol>
	<symbol id="play" xmlns="http://www.w3.org/2000/svg" viewBox="0 0 41 48" fill="none">
		<path d="M39 20.5359C41.6667 22.0755 41.6667 25.9245 39 27.4641L5.99999 46.5167C3.33333 48.0563 -2.27875e-06 46.1318 -2.14416e-06 43.0526L-4.78528e-07 4.94744C-3.43932e-07 1.86823 3.33333 -0.0562634 6 1.48334L39 20.5359Z" fill="white"/>
	</symbol>
</svg>
